/* XPM */
static char *magick[] = {
/* columns rows colors chars-per-pixel */
"32 32 7 1",
"  c black",
". c lime",
"X c yellow",
"o c gray60",
"O c gray80",
"+ c gray90",
"@ c None",
/* pixels */
"@@@@@@@@@@@      @@@@@@@@@@@@@@@",
"@@@@@@@@@@         @@@@@@@@@@@@@",
"@@@@@@@@            @@@@@@@@@@@@",
"      @     OOOOOOO  @@@@@     @",
" ooooo    OOOOOOOOOOO          @",
" oooooo                        @",
" ooooooo   ooo                @@",
"  ooooooo   ++                @@",
"@  ooooooo   +       OO      @@@",
"@@   oooooo         OOOO    @@@@",
"@@@@  oooooo        OOOOOO  @@@@",
"@@@@@  oooooo      ooOOOOOO  @@@",
"@@@@@  ooooooOOOOO  ooOOOOOO  @@",
"@@@@   oooooOOOOOOO  ooOOOOOO  @",
"@@@@   ooooOOOOOOOOO  ooOOOOOO  ",
"@@@@   ooooOOOOO  OOO  ooOOOOO  ",
"@@@@   ooooOOOOO  OOOO  ooOoOO  ",
"@@@@   ooooOOOOO  OOOOO  ooooo  ",
"@@@@   ooooOOOOO  OOOOOO  oooo  ",
"@@@@   oooooOOOO  OOOOOOO  oo   ",
"@@@@    oooooOOO   OOOOOOO  o O ",
"@@@@@   ooooooOO   OOOOOOOO   O ",
"@@@@@@  oooooooX.X OOOOOOOO  OO ",
"@@@@@@@ ooooo.Xoo   OOOOOOO  OO ",
"@@@@@@@ oooX.oooo    OOOOOO  OO ",
"@@@@@@  o.XoXoooooo   OOOOO  OO ",
"@@@@@@ oXXoo.ooooooo   OOO   O @",
"@@@@@  .o.ooooooooooo   O    O @",
"@@@@@ .oo.oooooooooooo        @@",
"@@@@  ooooooooooooooo      @@@@@",
"@@@@ ooooooooooooooo  @@@@@@@@@@",
"@@@@                 @@@@@@@@@@@"
};
